<svg width="32" height="33" viewBox="0 0 32 33" fill="none" xmlns="http://www.w3.org/2000/svg">
<path d="M0 16.9587C0 8.12218 7.16344 0.95874 16 0.95874V0.95874C24.8366 0.95874 32 8.12218 32 16.9587V16.9587C32 25.7953 24.8366 32.9587 16 32.9587V32.9587C7.16344 32.9587 0 25.7953 0 16.9587V16.9587Z" fill="#0166FF"/>
<path d="M28.069 15.3821L26.1464 12.4527L21.7549 15.3353L23.4199 7.30928L19.9884 6.59904L18.9217 11.7425L14.4235 4.88977L11.4941 6.81237L14.3767 11.2039L6.35066 9.53888L5.64042 12.9704L10.7838 14.0371L3.93115 18.5353L5.85375 21.4647L10.2453 18.5821L8.58026 26.6081L12.0118 27.3184L13.0785 22.175L17.5767 29.0277L20.5061 27.1051L17.6235 22.7135L25.6495 24.3786L26.3598 20.947L21.2164 19.8803L28.069 15.3821ZM16.0001 20.8247C15.7738 18.7903 14.1686 17.1851 12.1341 16.9587C14.1686 16.7324 15.7738 15.1272 16.0001 13.0927C16.2264 15.1272 17.8316 16.7324 19.8661 16.9587C17.8316 17.1851 16.2264 18.7903 16.0001 20.8247Z" fill="white"/>
</svg>
