<svg width="23" height="23" viewBox="0 0 23 23" fill="none" xmlns="http://www.w3.org/2000/svg">
<g clip-path="url(#clip0_19321_2233)">
<g clip-path="url(#clip1_19321_2233)">
<path d="M15.4653 7.28945H12.6606C12.4078 7.28945 12.2029 7.48667 12.2029 7.72994V10.3607C12.2029 10.604 12.4078 10.8012 12.6606 10.8012H15.4653C15.718 10.8012 15.923 10.604 15.923 10.3607V7.72994C15.923 7.48667 15.718 7.28945 15.4653 7.28945Z" fill="#0166FF"/>
<path d="M9.95017 7.28945H7.14554C6.89276 7.28945 6.68783 7.48667 6.68783 7.72994V10.3607C6.68783 10.604 6.89276 10.8012 7.14554 10.8012H9.95017C10.203 10.8012 10.4079 10.604 10.4079 10.3607V7.72994C10.4079 7.48667 10.203 7.28945 9.95017 7.28945Z" fill="#0166FF"/>
<path d="M22.6164 7.1629C22.6016 6.87668 22.5671 6.59046 22.5151 6.30763C22.2423 4.83729 21.4703 3.44477 20.3074 2.45281C19.9277 2.12938 19.508 1.84993 19.0559 1.62799C17.2736 0.752419 15.1833 0.745652 13.1816 0.757832C8.99327 0.784221 4.80567 0.81061 0.617353 0.836322C0.615244 3.98405 0.613838 7.13177 0.611729 10.2788C0.611729 10.9331 0.611729 11.5915 0.731957 12.235C1.08069 14.0991 2.46789 15.719 4.23687 16.5492C6.46918 17.5967 9.08186 17.4322 11.5574 17.2441C11.5596 17.3341 11.5617 17.4235 11.5645 17.5134V21.6071L12.0173 21.3222C12.0531 21.304 12.0883 21.2837 12.1206 21.2627C14.0387 20.061 15.9356 18.8282 17.8107 17.5649C19.4834 16.4389 21.213 15.202 22.0314 13.4029C22.449 12.4853 22.6072 11.4636 22.6255 10.4669C22.6459 9.37145 22.6726 8.25635 22.6157 7.16222L22.6164 7.1629ZM18.8661 11.176C18.8021 11.8588 18.3957 12.5381 17.9141 13.0287C16.072 14.2426 14.2735 15.5228 12.4293 16.7333C12.1649 16.9065 11.8717 17.1318 11.5638 17.2178V13.7737H6.82635C5.69718 13.7737 4.26499 12.1748 4.26499 11.1063V4.48679L4.37045 4.38529H16.3019C17.4093 4.38529 18.6411 5.677 18.8316 6.67842C18.9905 7.51272 18.9512 10.2673 18.8661 11.1754V11.176Z" fill="#0166FF"/>
</g>
</g>
<defs>
<clipPath id="clip0_19321_2233">
<rect width="22.3283" height="21.3594" fill="white" transform="translate(0.55835 0.779602)"/>
</clipPath>
<clipPath id="clip1_19321_2233">
<rect width="22.3283" height="21.4883" fill="white" transform="translate(0.55835 0.755596)"/>
</clipPath>
</defs>
</svg>
